<!-- [STYLE: 命定之约风] [TYPE: cover] -->
<svg width="1080" height="1440" viewBox="0 0 1080 1440" xmlns="http://www.w3.org/2000/svg">
  <defs>
    <style>
      @import url('https://fonts.googleapis.com/css2?family=Noto+Serif+SC:wght@400;500;600;700&amp;family=Noto+Sans+SC:wght@300;400;500&amp;family=Playfair+Display:wght@400;500;600;700&amp;display=swap');
    </style>
    <linearGradient id="bgGradient" x1="0%" y1="100%" x2="100%" y2="0%">
      <stop offset="0%" stop-color="#FDF8F4"/>
      <stop offset="50%" stop-color="#F8EDE5"/>
      <stop offset="100%" stop-color="#F2E4D8"/>
    </linearGradient>
    <linearGradient id="lightOverlay" x1="0%" y1="0%" x2="0%" y2="100%">
      <stop offset="0%" stop-color="#FFF" stop-opacity="0.25"/>
      <stop offset="20%" stop-color="#FFF" stop-opacity="0"/>
      <stop offset="80%" stop-color="#000" stop-opacity="0"/>
      <stop offset="100%" stop-color="#000" stop-opacity="0.02"/>
    </linearGradient>
  </defs>

  <!-- 背景 -->
  <rect width="1080" height="1440" fill="url(#bgGradient)"/>
  <rect width="1080" height="1440" fill="url(#lightOverlay)"/>

  <!-- 顶部装饰 - 简化的无限符号 -->
  <g id="top-decoration" transform="translate(540, 120)">
    <path d="M-20,0 C-20,-12 -8,-12 0,0 C8,12 20,12 20,0 C20,-12 8,-12 0,0 C-8,12 -20,12 -20,0"
          fill="none" stroke="#B86B4A" stroke-width="1.5" opacity="0.4"/>
  </g>

  <!-- 主视觉区域 - 居中的星座配对 -->
  <g id="hero-section" transform="translate(540, 0)">
    <!-- 副标题 -->
    <text x="0" y="320" font-family="Georgia, serif" font-size="20" fill="#8B7355" text-anchor="middle" letter-spacing="8">DESTINED BOND</text>

    <!-- 主标题：星座配对 (视觉核心) -->
    <text x="0" y="420" font-family="Noto Serif SC, serif" font-size="56" font-weight="600" fill="#B86B4A" text-anchor="middle" letter-spacing="6">射手座 × 狮子座</text>

    <!-- 中文副标题 -->
    <text x="0" y="490" font-family="Noto Sans SC, sans-serif" font-size="24" font-weight="300" fill="#7D7067" text-anchor="middle" letter-spacing="4">命定之约</text>
  </g>

  <!-- 配对指数区域 -->
  <g id="match-section" transform="translate(540, 0)">
    <!-- 装饰线 -->
    <line x1="-60" y1="560" x2="60" y2="560" stroke="#D4C9BE" stroke-width="1"/>

    <!-- 标签在上 -->
    <text x="0" y="620" font-family="Noto Sans SC, sans-serif" font-size="20" font-weight="400" fill="#8B7355" text-anchor="middle" letter-spacing="4">契合指数</text>

    <!-- 百分比 -->
    <text x="0" y="710" font-family="Playfair Display, serif" font-size="96" font-weight="600" fill="#B86B4A" text-anchor="middle" letter-spacing="4">85%</text>
  </g>

  <!-- 主题概念 -->
  <g id="concept-section" transform="translate(540, 0)">
    <!-- 分隔装饰 -->
    <g transform="translate(0, 820)">
      <line x1="-80" y1="0" x2="-25" y2="0" stroke="#D4C9BE" stroke-width="1"/>
      <path d="M-12,0 C-12,-7 -5,-7 0,0 C5,7 12,7 12,0 C12,-7 5,-7 0,0 C-5,7 -12,7 -12,0"
            fill="none" stroke="#B86B4A" stroke-width="1.5" opacity="0.6"/>
      <line x1="25" y1="0" x2="80" y2="0" stroke="#D4C9BE" stroke-width="1"/>
    </g>

    <!-- 主题词 -->
    <text x="0" y="920" font-family="Noto Serif SC, serif" font-size="48" font-weight="600" fill="#4A3F35" text-anchor="middle" letter-spacing="12">命中注定</text>

    <!-- 描述 -->
    <text x="0" y="985" font-family="Noto Serif SC, serif" font-size="24" fill="#7D7067" text-anchor="middle" letter-spacing="4">火象最佳CP</text>
  </g>

  <!-- 标语 -->
  <g id="tagline" transform="translate(540, 0)">
    <text x="0" y="1100" font-family="Noto Serif SC, serif" font-size="24" fill="#7D7067" text-anchor="middle" letter-spacing="2">两个人在一起</text>
    <text x="0" y="1150" font-family="Noto Serif SC, serif" font-size="24" text-anchor="middle" letter-spacing="2">
      <tspan fill="#B86B4A">发光发热</tspan><tspan fill="#7D7067">，谁也不用收敛</tspan>
    </text>
  </g>

  <!-- 页脚 -->
  <g id="footer">
    <line x1="100" y1="1350" x2="980" y2="1350" stroke="#D4C9BE" stroke-width="1.5"/>
    <text x="980" y="1388" font-family="Georgia, serif" font-size="24" fill="#7D7067" text-anchor="end" letter-spacing="6">01</text>
  </g>
</svg>
