<!-- [STYLE: 星际引力风] [TYPE: cover] -->
<svg width="1080" height="1440" viewBox="0 0 1080 1440" xmlns="http://www.w3.org/2000/svg">
  <defs>
    <style>
      @import url('https://fonts.googleapis.com/css2?family=Noto+Serif+SC:wght@400;500;600;700&amp;family=Noto+Sans+SC:wght@300;400;500&amp;display=swap');
    </style>
    <linearGradient id="bgGradient" x1="0%" y1="0%" x2="100%" y2="100%">
      <stop offset="0%" stop-color="#1A1525"/>
      <stop offset="50%" stop-color="#252035"/>
      <stop offset="100%" stop-color="#1E1A2E"/>
    </linearGradient>
    <radialGradient id="centerGlow" cx="50%" cy="35%" r="50%">
      <stop offset="0%" stop-color="#A78BDA" stop-opacity="0.15"/>
      <stop offset="50%" stop-color="#7DB8C9" stop-opacity="0.05"/>
      <stop offset="100%" stop-color="#1A1525" stop-opacity="0"/>
    </radialGradient>
    <linearGradient id="orbitGradient" x1="0%" y1="0%" x2="100%" y2="0%">
      <stop offset="0%" stop-color="#A78BDA" stop-opacity="0"/>
      <stop offset="50%" stop-color="#A78BDA" stop-opacity="0.4"/>
      <stop offset="100%" stop-color="#7DB8C9" stop-opacity="0"/>
    </linearGradient>
    <linearGradient id="textGlow" x1="0%" y1="0%" x2="100%" y2="0%">
      <stop offset="0%" stop-color="#A78BDA"/>
      <stop offset="100%" stop-color="#7DB8C9"/>
    </linearGradient>
  </defs>

  <!-- 背景 -->
  <rect width="1080" height="1440" fill="url(#bgGradient)"/>
  <rect width="1080" height="1440" fill="url(#centerGlow)"/>

  <!-- 星星粒子 -->
  <g id="stars">
    <circle cx="150" cy="200" r="2" fill="#FFF" opacity="0.6"/>
    <circle cx="890" cy="180" r="3" fill="#FFF" opacity="0.4"/>
    <circle cx="320" cy="350" r="1.5" fill="#FFF" opacity="0.7"/>
    <circle cx="780" cy="420" r="2.5" fill="#FFF" opacity="0.5"/>
    <circle cx="200" cy="600" r="2" fill="#FFF" opacity="0.3"/>
    <circle cx="920" cy="750" r="3" fill="#FFF" opacity="0.4"/>
    <circle cx="130" cy="900" r="1.5" fill="#FFF" opacity="0.6"/>
    <circle cx="850" cy="1100" r="2" fill="#FFF" opacity="0.5"/>
    <circle cx="250" cy="1200" r="2.5" fill="#FFF" opacity="0.4"/>
    <circle cx="950" cy="1300" r="1.5" fill="#FFF" opacity="0.3"/>
  </g>

  <!-- 页眉 -->
  <g id="header">
    <text x="100" y="130" font-family="Noto Serif SC, serif" font-size="32" font-weight="500" fill="#A78BDA" letter-spacing="2">射手座 × 天蝎座</text>
    <text x="310" y="130" font-family="Georgia, serif" font-size="24" fill="#6B6380">·</text>
    <text x="340" y="130" font-family="Noto Sans SC, sans-serif" font-size="24" font-weight="300" fill="#9B95A8" letter-spacing="3">星际引力</text>
    <g transform="translate(920, 110)">
      <circle cx="0" cy="0" r="2" fill="#FFF" opacity="0.8"/>
      <circle cx="15" cy="-10" r="1.5" fill="#FFF" opacity="0.6"/>
      <circle cx="-10" cy="8" r="1" fill="#FFF" opacity="0.4"/>
    </g>
  </g>

  <!-- 引力轨道 -->
  <g id="orbits" transform="translate(540, 380)">
    <ellipse cx="0" cy="0" rx="180" ry="60" fill="none" stroke="url(#orbitGradient)" stroke-width="1" transform="rotate(-15)"/>
    <ellipse cx="0" cy="0" rx="140" ry="45" fill="none" stroke="url(#orbitGradient)" stroke-width="1.5" transform="rotate(10)"/>
    <ellipse cx="0" cy="0" rx="100" ry="30" fill="none" stroke="url(#orbitGradient)" stroke-width="1" transform="rotate(-5)"/>
  </g>

  <!-- 双星座布局 -->
  <g id="dual-zodiac" transform="translate(540, 380)">
    <!-- 射手座光晕 -->
    <circle cx="-100" cy="0" r="55" fill="#A78BDA" opacity="0.1"/>
    <g transform="translate(-140, -40)">
      <svg viewBox="0 0 100 100" width="80" height="80" fill="none" stroke="#A78BDA" stroke-width="2">
        <line x1="20" y1="80" x2="80" y2="20"/>
        <line x1="80" y1="20" x2="55" y2="20"/>
        <line x1="80" y1="20" x2="80" y2="45"/>
        <line x1="25" y1="45" x2="55" y2="75"/>
      </svg>
    </g>
    <!-- 连接线 -->
    <line x1="-40" y1="0" x2="40" y2="0" stroke="url(#orbitGradient)" stroke-width="2"/>
    <!-- 天蝎座光晕 -->
    <circle cx="100" cy="0" r="55" fill="#7DB8C9" opacity="0.1"/>
    <g transform="translate(60, -40)">
      <svg viewBox="0 0 100 100" width="80" height="80" fill="none" stroke="#7DB8C9" stroke-width="2">
        <path d="M20 20 L20 80"/>
        <path d="M20 50 Q35 30 45 50 Q55 70 45 80"/>
        <path d="M45 50 Q60 30 70 50 L80 40"/>
        <path d="M75 35 L80 40 L75 45"/>
      </svg>
    </g>
  </g>

  <!-- 配对指数 -->
  <g id="match-index" transform="translate(540, 530)">
    <text x="0" y="0" font-family="Georgia, serif" font-size="18" fill="#9B95A8" text-anchor="middle" letter-spacing="4">COSMIC BOND</text>
    <text x="0" y="50" font-family="Georgia, serif" font-size="56" font-weight="600" fill="url(#textGlow)" text-anchor="middle">75%</text>
  </g>

  <!-- 分隔线 -->
  <line x1="470" y1="620" x2="610" y2="620" stroke="#6B6380" stroke-width="1"/>

  <!-- 封面标题 -->
  <g id="cover-title" transform="translate(540, 740)">
    <text x="0" y="0" font-family="Noto Serif SC, serif" font-size="72" font-weight="600" fill="#E8E4F0" text-anchor="middle" letter-spacing="6">引力相吸</text>
    <text x="0" y="80" font-family="Noto Serif SC, serif" font-size="32" fill="#9B95A8" text-anchor="middle" letter-spacing="4">水火交融</text>
  </g>

  <!-- 标语 -->
  <g id="tagline" transform="translate(540, 940)">
    <text x="0" y="0" font-family="Noto Serif SC, serif" font-size="28" fill="#9B95A8" text-anchor="middle" letter-spacing="3">看似不合拍</text>
    <text x="0" y="50" font-family="Noto Serif SC, serif" font-size="28" text-anchor="middle" letter-spacing="3">
      <tspan fill="#A78BDA">却有致命吸引力</tspan>
    </text>
  </g>

  <!-- 页脚 -->
  <g id="footer">
    <line x1="100" y1="1350" x2="980" y2="1350" stroke="#6B6380" stroke-width="1"/>
    <text x="980" y="1390" font-family="Georgia, serif" font-size="28" fill="#9B95A8" text-anchor="end" letter-spacing="4">0 1</text>
  </g>
</svg>
